# xmcd
#
# Track frame offsets: 
#        150
#        21394
#        43920
#        61300
#        65655
#        87023
#        101834
#        116825
#        135803
#        151899
#        172001
#        190524
#        210808
#
# Disc length: 3053 seconds
#
# Revision: 0
# Processed by: cddbd v1.5.2PL0 Copyright (c) Steve Scherf et al.
# Submitted via: ExactAudioCopy v0.95b3
#
DISCID=aa0beb0d
DTITLE=Alan Tyler and The Lost Sons Of Littlefield - Alan Tyler and The Lo
DTITLE=st Sons Of Littlefield
DYEAR=2006
DGENRE=Country
TTITLE0=Cross Eyed Country
TTITLE1=Guns
TTITLE2=Little Big Man
TTITLE3=Middle Saxon Town (Intro.)
TTITLE4=Middle Saxon Town
TTITLE5=Favourite Child
TTITLE6=I'm Never Gonna Sing That Song Anymore
TTITLE7=Hat In The Road
TTITLE8=The Meaning Of Love
TTITLE9=Ghost Riders In The Sky
TTITLE10=I'm Still Here
TTITLE11=Ladder of Years
TTITLE12=Love Her Like A Demon
EXTD=
EXTT0=
EXTT1=
EXTT2=
EXTT3=
EXTT4=
EXTT5=
EXTT6=
EXTT7=
EXTT8=
EXTT9=
EXTT10=
EXTT11=
EXTT12=
PLAYORDER=
